{"asset":{"version":"2.0","generator":"make_gltf_planets.py","copyright":"Textures: Solar System Scope, CC BY 4.0"},"scene":0,"scenes":[{"nodes":[0,1]}],"nodes":[{"mesh":0},{"mesh":1}],"meshes":[{"primitives":[{"attributes":{"POSITION":0,"NORMAL":1,"TEXCOORD_0":2},"indices":3,"material":0}]},{"primitives":[{"attributes":{"POSITION":4,"NORMAL":5,"TEXCOORD_0":6},"indices":7,"material":1}]}],"materials":[{"name":"saturne","pbrMetallicRoughness":{"baseColorTexture":{"index":0},"metallicFactor":0.0,"roughnessFactor":1.0}},{"name":"anneaux","doubleSided":true,"alphaMode":"BLEND","pbrMetallicRoughness":{"baseColorTexture":{"index":1},"metallicFactor":0.0,"roughnessFactor":1.0}}],"textures":[{"source":0,"sampler":0},{"source":1,"sampler":0}],"images":[{"uri":"https://upload.wikimedia.org/wikipedia/commons/e/ea/Solarsystemscope_texture_2k_saturn.jpg"},{"uri":"https://upload.wikimedia.org/wikipedia/commons/7/7d/Solarsystemscope_texture_2k_saturn_ring_alpha.png"}],"samplers":[{"magFilter":9729,"minFilter":9987,"wrapS":10497,"wrapT":33071}],"accessors":[{"bufferView":0,"componentType":5126,"count":2145,"type":"VEC3","min":[-1.0,-1.0,-1.0],"max":[1.0,1.0,1.0]},{"bufferView":1,"componentType":5126,"count":2145,"type":"VEC3"},{"bufferView":2,"componentType":5126,"count":2145,"type":"VEC2"},{"bufferView":3,"componentType":5123,"count":12288,"type":"SCALAR"},{"bufferView":4,"componentType":5126,"count":258,"type":"VEC3","min":[-2.27,-1.0199541268580852,-2.0279530515041913],"max":[2.27,1.0199541268580852,2.0279530515041913]},{"bufferView":5,"componentType":5126,"count":258,"type":"VEC3"},{"bufferView":6,"componentType":5126,"count":258,"type":"VEC2"},{"bufferView":7,"componentType":5123,"count":768,"type":"SCALAR"}],"bufferViews":[{"buffer":0,"byteOffset":0,"byteLength":25740,"target":34962},{"buffer":0,"byteOffset":25740,"byteLength":25740,"target":34962},{"buffer":0,"byteOffset":51480,"byteLength":17160,"target":34962},{"buffer":0,"byteOffset":68640,"byteLength":24576,"target":34963},{"buffer":0,"byteOffset":93216,"byteLength":3096,"target":34962},{"buffer":0,"byteOffset":96312,"byteLength":3096,"target":34962},{"buffer":0,"byteOffset":99408,"byteLength":2064,"target":34962},{"buffer":0,"byteOffset":101472,"byteLength":1536,"target":34963}],"buffers":[{"byteLength":103008,"uri":"data:application/octet-stream;base64,"}]}